<svg width="48" height="48" viewBox="0 0 48 48" fill="none" xmlns="http://www.w3.org/2000/svg">
<path d="M4.5 24C4.5 13.23 13.23 4.5 24 4.5C34.77 4.5 43.5 13.23 43.5 24C43.5 34.77 34.77 43.5 24 43.5C13.23 43.5 4.5 34.77 4.5 24ZM27 16C27.0001 15.7233 26.9237 15.4519 26.7792 15.2159C26.6347 14.9799 26.4277 14.7885 26.1811 14.6629C25.9346 14.5372 25.6581 14.4822 25.3822 14.5039C25.1063 14.5257 24.8418 14.6233 24.618 14.786L19.118 18.786C18.796 19.0199 18.5802 19.3722 18.5179 19.7652C18.4556 20.1583 18.5521 20.56 18.786 20.882C19.0199 21.204 19.3722 21.4198 19.7652 21.4821C20.1583 21.5444 20.56 21.4479 20.882 21.214L24.002 18.946V32C24.002 32.3978 24.16 32.7794 24.4413 33.0607C24.7226 33.342 25.1042 33.5 25.502 33.5C25.8998 33.5 26.2814 33.342 26.5627 33.0607C26.844 32.7794 27.002 32.3978 27.002 32L27 16Z" fill="#303030"/>
</svg>
